<svg width="107" height="19" viewBox="0 0 107 19" fill="none" xmlns="http://www.w3.org/2000/svg">
<path d="M6.45517 15.4385C9.96289 15.4385 12.8616 12.9977 12.8616 9.03429C12.8616 5.16764 9.91417 2.70264 6.45517 2.70264C2.94746 2.70264 0 5.14347 0 9.03429C0 12.9977 2.9231 15.4385 6.45517 15.4385ZM2.07053 9.03429C2.07053 6.30347 3.97054 4.34597 6.45517 4.34597C8.89109 4.34597 10.8155 6.32763 10.8155 9.03429C10.8155 11.8618 8.96417 13.7951 6.45517 13.7951C3.92182 13.7951 2.07053 11.8618 2.07053 9.03429Z" fill="white"/>
<path d="M15.1523 18.0061H17.2229V12.5386C17.9536 14.3753 19.7807 15.3903 21.6806 15.3903C25.1396 15.3903 27.6974 12.8528 27.6974 8.91365C27.6974 5.19199 25.1883 2.6545 21.705 2.70283C19.495 2.70283 17.2059 2.98731 16.4509 4.53398L17.2229 2.9445H15.1523V18.0061ZM17.2229 8.81698C17.2229 6.27949 18.928 4.39449 21.437 4.37033C23.7269 4.34616 25.6512 6.18283 25.6512 8.93782C25.6512 11.8861 23.8486 13.6987 21.437 13.6744C18.855 13.6744 17.2229 11.7411 17.2229 8.81698Z" fill="white"/>
<path d="M36.1887 15.4382C38.9169 15.4382 41.3042 13.6257 42.108 11.2332H40.0618C39.5015 12.7074 38.0157 13.8191 36.0913 13.7949C33.8502 13.7949 31.9746 12.079 31.8772 9.68654H42.2054C42.4247 5.50572 39.8183 2.67822 36.0669 2.67822C32.7297 2.67822 29.8066 5.21572 29.8066 9.1307C29.8066 13.0215 32.876 15.4382 36.1887 15.4382ZM31.9016 8.06737C32.1695 5.86821 33.8989 4.29738 36.0669 4.29738C38.381 4.29738 40.0862 6.03738 40.2324 8.04321L31.9016 8.06737Z" fill="white"/>
<path d="M44.2939 15.1965H46.3644V8.01902C46.3644 5.81986 48.1182 4.39402 49.9696 4.41819C52.1376 4.41819 53.0144 5.72319 53.0144 8.09152V15.1965H55.085V8.09152C55.085 4.68402 53.7208 2.72653 50.5786 2.6782C48.9952 2.65403 47.0221 3.57236 46.3644 5.14319V2.94403H44.2939V15.1965Z" fill="white"/>
<path d="M57.2822 15.1969H59.3284V8.76857C59.3284 6.15858 60.6194 4.53942 62.8118 4.53942C64.8335 4.53942 66.1003 6.06191 66.1003 8.59941V15.1969H68.1464V8.59941C68.1464 5.26441 66.2707 2.79942 63.0066 2.79942C61.3015 2.79942 59.8643 3.79025 59.3284 5.16775V0H57.2822V15.1969Z" fill="white"/>
<path d="M76.1203 15.4625C78.142 15.4142 79.8958 14.3509 80.6023 12.6109V15.1967H82.6484V2.94422H80.6023V5.28839C79.7984 3.64506 78.0202 2.72673 76.1203 2.72673C72.6368 2.70255 70.1035 5.36088 70.1035 9.03421C70.1035 12.9492 72.5881 15.5592 76.1203 15.4625ZM72.1741 9.01005C72.1741 6.37588 73.9279 4.39422 76.3881 4.41839C78.9703 4.44256 80.6023 6.40005 80.6023 8.81671C80.6023 11.8617 78.8972 13.7467 76.3881 13.7708C74.0497 13.795 72.1741 12.0792 72.1741 9.01005Z" fill="white"/>
<path d="M95.7629 2.94434H93.6923V10.1218C93.6923 12.321 91.9385 13.7468 90.0872 13.7226C87.9192 13.7226 87.0422 12.4176 87.0422 10.0493V2.94434H84.9717V10.0493C84.9717 13.4568 86.3359 15.4143 89.4782 15.4626C92.9451 15.516 94.4249 14.4599 95.0825 12.8891L93.6923 15.1968H95.7629V2.94434Z" fill="white"/>
<path d="M102.42 15.4143C105.344 15.4627 106.976 13.9885 107 11.8136C107 9.44523 105.465 8.47856 102.469 8.0919C100.593 7.85023 99.9601 7.0769 99.9601 6.08607C99.9357 4.9019 100.886 4.34607 102.055 4.34607C103.517 4.37024 104.515 5.07106 104.515 6.69023H106.488C106.537 4.22523 104.71 2.75107 102.055 2.72691C99.6191 2.67858 97.914 3.9594 97.914 6.08607C97.914 8.3819 99.5461 9.37272 102.152 9.6869C104.101 9.92855 104.978 10.6052 104.929 11.9102C104.905 13.1669 103.833 13.8435 102.42 13.771C100.861 13.7227 99.9601 12.5869 99.9357 11.2577H97.8896C97.8896 13.771 99.8627 15.3419 102.42 15.4143Z" fill="white"/>
</svg>
